<?xml version="1.0" encoding="UTF-8" standalone="no"?>
<!DOCTYPE svg PUBLIC "-//W3C//DTD SVG 20010904//EN"
              "http://www.w3.org/TR/2001/REC-SVG-20010904/DTD/svg10.dtd">

<svg xmlns="http://www.w3.org/2000/svg"
     width="5.55486in" height="5.55486in"
     viewBox="0 0 400 400">
  <path id="Selection"
        fill="black" stroke="black" stroke-width="0"
        d="M 332.41,9.05
           C 333.84,14.45 329.34,15.86 325.78,22.00
             325.78,22.00 317.10,37.00 317.10,37.00
             317.10,37.00 311.11,45.00 311.11,45.00
             305.87,53.01 309.60,50.29 301.00,59.00
             303.61,57.90 306.18,56.64 309.00,56.21
             317.48,54.93 330.55,57.57 330.98,68.00
             331.45,79.42 328.66,79.18 324.28,88.00
             322.49,91.59 322.10,94.75 319.70,98.00
             317.50,100.99 311.57,107.18 310.38,110.42
             309.19,113.64 309.30,127.05 312.31,128.99
             314.32,130.24 322.82,128.94 326.00,128.99
             337.98,129.29 346.89,136.23 344.67,149.00
             343.19,157.56 336.75,169.94 333.12,178.00
             333.12,178.00 330.23,186.00 330.23,186.00
             330.23,186.00 320.53,205.00 320.53,205.00
             318.78,207.93 309.85,219.24 309.69,221.42
             309.47,224.42 313.78,226.95 316.00,228.21
             320.93,230.99 328.42,235.17 330.17,241.00
             332.56,248.97 321.91,254.97 317.00,259.00
             326.27,255.07 332.71,252.43 343.00,254.90
             347.43,255.96 351.47,256.69 351.88,262.00
             352.39,268.73 346.83,268.59 340.00,272.96
             340.00,272.96 322.04,287.13 322.04,287.13
             318.04,290.10 312.56,292.67 310.09,296.99
             307.15,302.11 311.91,302.16 314.49,304.69
             316.42,306.59 317.02,309.38 316.62,312.00
             315.68,318.08 309.84,320.10 307.52,331.00
             306.70,334.83 307.01,344.57 307.00,349.00
             307.00,349.00 305.00,375.00 305.00,375.00
             314.98,372.85 314.81,367.71 316.66,359.00
             316.66,359.00 321.80,331.00 321.80,331.00
             322.62,326.76 322.50,320.89 326.00,318.00
             322.14,333.87 329.73,349.57 332.13,365.00
             332.93,370.09 336.24,377.12 333.71,381.71
             332.29,384.29 326.66,388.78 324.00,390.02
             324.00,390.02 296.00,396.56 296.00,396.56
             292.76,397.07 284.28,397.90 281.92,395.40
             281.05,394.48 280.20,392.20 279.67,391.00
             278.48,388.29 277.24,386.04 277.20,383.00
             277.08,376.04 285.61,361.34 289.00,355.00
             285.63,352.40 283.84,346.01 285.48,342.00
             290.06,330.79 298.83,327.80 299.00,314.00
             299.00,314.00 282.00,322.00 282.00,322.00
             282.00,322.00 283.31,310.21 283.31,310.21
             283.31,310.21 297.85,295.00 297.85,295.00
             297.85,295.00 301.00,278.00 301.00,278.00
             301.00,278.00 300.00,277.00 300.00,277.00
             300.00,277.00 292.00,282.21 292.00,282.21
             292.00,282.21 257.00,304.63 257.00,304.63
             257.00,304.63 250.09,307.69 250.09,307.69
             248.65,308.40 246.22,310.06 244.84,310.35
             239.85,311.38 238.85,306.82 239.18,303.00
             239.18,303.00 240.00,298.00 240.00,298.00
             241.82,298.29 244.20,298.85 246.00,298.56
             249.82,297.93 261.27,288.95 266.00,286.31
             266.00,286.31 286.00,273.34 286.00,273.34
             290.60,270.70 298.47,267.74 301.18,262.96
             302.64,260.14 302.50,243.22 301.18,240.09
             299.88,236.58 296.99,235.64 296.23,231.00
             295.07,223.94 300.17,224.23 300.89,218.98
             300.89,218.98 298.00,204.00 298.00,204.00
             303.61,204.46 304.41,205.67 306.00,211.00
             316.54,199.41 324.30,177.82 329.95,163.00
             331.10,159.98 335.21,147.98 333.23,145.60
             331.85,143.93 328.96,144.09 327.00,143.92
             327.00,143.92 311.00,143.00 311.00,143.00
             311.00,155.94 312.05,179.45 307.17,190.98
             304.68,196.87 299.95,197.29 295.11,193.43
             291.25,190.35 288.65,183.78 288.00,179.00
             281.62,177.07 281.50,173.33 277.71,168.42
             275.00,164.91 272.04,162.05 269.92,158.00
             262.41,143.70 276.17,136.75 288.00,134.01
             291.34,133.24 298.25,132.33 300.20,129.69
             302.95,126.55 300.94,120.54 300.20,117.00
             297.77,118.89 295.53,120.77 293.00,122.27
             286.14,126.34 281.35,124.04 281.04,116.00
             280.77,108.97 284.24,97.15 289.47,92.31
             292.93,89.11 298.59,90.00 303.00,90.00
             303.00,90.00 307.00,96.00 307.00,96.00
             310.45,86.59 319.28,75.32 317.00,65.00
             317.00,65.00 308.01,68.41 308.01,68.41
             308.01,68.41 289.99,85.02 289.99,85.02
             289.99,85.02 278.00,96.00 278.00,96.00
             276.66,95.14 276.00,95.00 274.98,93.59
             273.17,91.09 269.34,82.26 271.04,79.34
             272.53,76.76 276.53,75.63 278.96,74.01
             282.00,72.00 284.36,68.90 286.52,66.00
             291.73,59.00 293.87,53.53 297.78,46.00
             305.51,31.11 311.63,18.84 314.00,2.00
             319.39,2.02 330.71,2.64 332.41,9.05 Z
           M 117.77,32.99
           C 122.42,30.02 121.96,19.84 121.62,15.00
             120.71,2.08 136.47,11.45 138.25,16.09
             139.86,20.30 135.98,26.30 134.00,30.00
             142.41,27.56 149.74,24.31 157.98,28.82
             159.37,29.58 161.17,30.65 161.83,32.17
             164.04,37.20 154.64,37.07 152.00,37.42
             147.11,38.08 134.81,37.84 131.21,40.02
             128.64,41.57 127.08,45.43 125.55,48.00
             125.55,48.00 117.00,60.00 117.00,60.00
             126.50,59.20 132.67,55.30 142.00,60.93
             143.69,61.95 146.12,63.65 147.22,65.30
             149.92,69.34 146.15,74.92 144.70,79.00
             144.70,79.00 137.87,104.00 137.87,104.00
             137.01,107.45 135.16,115.10 133.01,117.69
             129.50,121.91 125.44,119.52 124.00,115.00
             124.00,115.00 106.00,116.00 106.00,116.00
             110.38,122.23 108.31,125.18 106.00,132.00
             117.99,132.00 130.14,130.48 142.00,128.73
             142.00,128.73 158.00,126.09 158.00,126.09
             163.26,125.79 169.69,127.78 173.96,130.85
             176.58,132.74 180.57,137.26 175.84,139.40
             174.26,140.12 170.80,140.00 169.00,140.00
             169.00,140.00 128.00,140.00 128.00,140.00
             128.00,140.00 106.00,141.00 106.00,141.00
             106.00,163.69 107.28,173.74 100.00,196.00
             93.27,193.86 94.01,188.01 94.00,182.00
             94.00,182.00 94.00,142.00 94.00,142.00
             83.09,142.50 71.72,143.89 61.00,146.00
             54.33,147.31 43.24,150.23 37.00,149.96
             33.25,149.80 27.17,148.24 24.15,146.01
             22.34,144.67 20.32,141.95 22.62,140.02
             24.33,138.59 30.64,139.02 33.00,139.00
             33.00,139.00 43.00,137.96 43.00,137.96
             43.00,137.96 52.00,137.96 52.00,137.96
             52.00,137.96 72.00,135.17 72.00,135.17
             72.00,135.17 94.00,133.00 94.00,133.00
             94.00,133.00 92.00,117.00 92.00,117.00
             92.00,117.00 77.13,118.59 77.13,118.59
             73.97,119.84 72.26,124.40 68.39,121.38
             65.25,118.93 64.52,112.73 64.00,109.00
             64.00,109.00 59.24,81.00 59.24,81.00
             57.19,75.25 52.03,71.72 54.08,68.60
             55.61,66.27 64.27,67.03 67.00,67.00
             74.71,66.91 109.91,62.17 117.00,60.00
             117.00,60.00 113.00,60.00 113.00,60.00
             113.00,60.00 117.00,42.00 117.00,42.00
             109.43,45.12 108.08,43.05 101.00,40.00
             103.42,33.08 112.54,36.34 117.77,32.99 Z
           M 74.98,23.22
           C 75.90,24.76 76.68,33.55 77.00,36.00
             83.13,33.74 86.83,32.20 93.00,35.00
             90.73,40.92 83.77,42.11 78.00,43.00
             79.34,47.07 80.54,52.69 79.85,56.98
             79.48,59.35 78.10,62.10 75.20,60.83
             71.93,59.40 69.76,50.35 69.00,47.00
             69.00,47.00 57.00,51.43 57.00,51.43
             47.53,55.48 42.20,59.18 34.31,48.98
             32.29,46.37 32.25,45.12 32.00,41.92
             32.00,41.92 49.00,41.92 49.00,41.92
             49.00,41.92 66.00,39.00 66.00,39.00
             62.72,33.07 58.21,25.70 58.00,19.00
             62.90,18.35 72.05,18.36 74.98,23.22 Z
           M 283.00,18.00
           C 283.00,18.00 287.00,37.00 287.00,37.00
             287.00,37.00 294.00,35.00 294.00,35.00
             293.76,44.63 290.01,52.18 280.00,54.00
             277.96,45.31 274.65,41.90 275.02,32.00
             275.31,24.31 278.06,27.35 278.00,19.00
             278.00,19.00 283.00,18.00 283.00,18.00 Z
           M 300.00,59.00
           C 300.00,59.00 301.00,60.00 301.00,60.00
             301.00,60.00 301.00,59.00 301.00,59.00
             301.00,59.00 300.00,59.00 300.00,59.00 Z
           M 122.00,70.00
           C 122.00,70.00 70.00,74.00 70.00,74.00
             70.00,74.00 72.00,90.00 72.00,90.00
             72.00,90.00 103.00,85.58 103.00,85.58
             103.00,85.58 119.00,83.19 119.00,83.19
             119.00,83.19 128.00,85.00 128.00,85.00
             129.31,77.69 131.78,70.18 122.00,70.00 Z
           M 98.00,95.13
           C 91.06,96.10 79.69,98.08 73.00,97.00
             73.47,99.64 73.86,107.60 75.60,109.03
             78.15,111.00 85.82,109.37 89.00,109.03
             100.05,108.05 113.49,104.44 124.00,107.00
             124.00,107.00 127.00,91.00 127.00,91.00
             127.00,91.00 98.00,95.13 98.00,95.13 Z
           M 291.00,111.00
           C 297.80,107.78 300.98,104.62 296.00,98.00
             291.85,102.58 291.15,104.93 291.00,111.00 Z
           M 300.83,145.31
           C 298.00,141.15 284.01,143.94 280.02,145.73
             278.37,146.47 276.31,147.56 275.67,149.38
             274.60,152.37 277.35,156.81 279.22,158.96
             284.36,164.88 293.00,170.48 300.00,174.00
             300.53,167.46 304.51,150.72 300.83,145.31 Z
           M 81.00,237.85
           C 83.53,237.54 88.42,237.22 89.69,234.69
             91.59,230.94 88.50,222.65 87.17,219.00
             86.39,216.84 85.44,213.75 87.60,212.02
             91.18,209.16 106.85,212.50 108.53,220.02
             109.22,223.10 106.60,229.15 106.00,233.00
             117.01,230.51 128.11,223.07 139.00,228.26
             143.45,230.38 148.79,233.08 147.31,239.00
             146.60,241.84 142.68,246.81 141.00,250.00
             148.10,247.92 166.26,245.07 173.00,247.56
             175.84,248.61 183.44,252.54 181.60,256.52
             180.43,259.06 175.35,258.97 173.00,259.00
             173.00,259.00 136.00,260.00 136.00,260.00
             136.00,260.00 133.05,272.00 133.05,272.00
             133.05,272.00 133.84,279.40 133.84,279.40
             133.84,279.40 126.00,281.09 126.00,281.09
             126.00,281.09 103.00,283.00 103.00,283.00
             103.00,283.00 103.00,294.00 103.00,294.00
             110.41,293.39 117.51,290.74 125.00,291.04
             127.85,291.15 135.26,292.10 136.29,295.29
             137.32,298.45 132.07,299.53 130.00,299.82
             130.00,299.82 103.00,303.00 103.00,303.00
             103.00,303.00 103.00,314.00 103.00,314.00
             103.00,314.00 129.00,310.85 129.00,310.85
             135.93,310.02 149.82,307.01 156.00,308.79
             158.79,309.59 169.79,315.01 165.36,319.00
             163.27,320.88 154.89,321.00 152.00,321.00
             122.24,321.05 92.54,324.31 63.00,327.85
             53.01,329.04 37.88,333.11 32.00,322.00
             32.00,322.00 55.00,318.83 55.00,318.83
             55.00,318.83 91.00,315.00 91.00,315.00
             91.00,315.00 91.00,305.00 91.00,305.00
             85.29,306.02 77.75,307.13 72.00,306.99
             69.20,306.92 63.64,306.48 62.17,303.64
             60.08,299.62 68.91,299.18 71.00,298.95
             74.97,298.50 87.90,297.81 89.98,294.69
             91.34,292.64 91.00,287.51 91.00,285.00
             78.64,285.27 64.28,292.86 58.00,281.00
             58.00,281.00 91.00,276.00 91.00,276.00
             91.00,276.00 91.00,264.00 91.00,264.00
             91.00,264.00 59.00,268.28 59.00,268.28
             52.91,269.08 42.53,271.24 37.00,270.96
             31.23,270.66 25.83,268.86 24.00,263.00
             24.00,263.00 60.00,258.83 60.00,258.83
             60.00,258.83 91.00,256.00 91.00,256.00
             91.00,256.00 91.00,245.00 91.00,245.00
             91.00,245.00 73.00,247.16 73.00,247.16
             65.27,247.99 57.85,249.46 55.00,240.00
             55.00,240.00 81.00,237.85 81.00,237.85 Z
           M 105.02,243.51
           C 103.60,245.50 104.00,251.44 104.00,254.00
             104.00,254.00 119.00,252.42 119.00,252.42
             119.00,252.42 124.83,250.43 124.83,250.43
             124.83,250.43 126.00,240.00 126.00,240.00
             121.63,240.00 107.59,239.91 105.02,243.51 Z
           M 313.00,243.00
           C 310.47,247.64 308.91,250.20 312.00,255.00
             314.90,249.66 314.94,248.99 315.00,243.00
             315.00,243.00 313.00,243.00 313.00,243.00 Z
           M 104.00,263.00
           C 104.00,263.00 104.00,274.00 104.00,274.00
             107.76,273.05 117.63,272.14 119.92,269.47
             121.53,267.57 122.45,263.42 123.00,261.00
             123.00,261.00 104.00,263.00 104.00,263.00 Z
           M 311.00,283.00
           C 311.00,283.00 323.00,269.00 323.00,269.00
             314.35,270.22 306.77,272.35 311.00,283.00 Z
           M 64.00,337.82
           C 64.00,337.82 74.00,336.84 74.00,336.84
             74.00,336.84 115.00,331.73 115.00,331.73
             115.00,331.73 133.00,328.38 133.00,328.38
             137.00,328.56 144.78,333.12 147.11,336.32
             150.81,341.43 146.11,343.99 144.42,353.00
             144.42,353.00 139.56,381.00 139.56,381.00
             138.43,384.80 136.22,390.07 132.90,392.40
             130.39,394.16 127.89,393.96 125.00,394.00
             124.21,391.07 122.35,384.64 119.61,383.11
             117.54,381.96 109.61,383.23 107.00,383.58
             107.00,383.58 78.02,386.06 78.02,386.06
             71.53,386.62 70.86,392.79 66.41,388.64
             63.21,385.65 62.93,379.15 62.25,375.00
             60.43,363.88 60.43,349.43 51.00,342.00
             53.39,334.51 58.13,337.82 64.00,337.82 Z
           M 129.40,340.74
           C 127.07,338.45 121.04,338.92 118.00,339.28
             118.00,339.28 90.00,342.58 90.00,342.58
             86.35,343.08 71.92,344.28 70.00,346.74
             68.48,348.67 69.88,355.31 70.00,358.00
             70.00,358.00 96.00,354.72 96.00,354.72
             96.00,354.72 122.00,351.18 122.00,351.18
             122.00,351.18 131.00,353.00 131.00,353.00
             131.00,349.89 131.66,342.95 129.40,340.74 Z
           M 112.00,361.28
           C 112.00,361.28 80.00,364.92 80.00,364.92
             80.00,364.92 71.00,364.00 71.00,364.00
             71.00,364.00 73.00,378.00 73.00,378.00
             73.00,378.00 96.00,375.25 96.00,375.25
             107.68,373.35 115.07,370.86 127.00,373.00
             127.00,373.00 130.00,359.00 130.00,359.00
             130.00,359.00 112.00,361.28 112.00,361.28 Z
           M 291.00,381.00
           C 291.00,381.00 299.00,378.00 299.00,378.00
             299.00,378.00 298.00,369.00 298.00,369.00
             294.87,372.17 292.13,376.68 291.00,381.00 Z" />
</svg>
